<?xml version="1.0" encoding="utf-8"?>
<!-- Generator: Adobe Illustrator 23.0.3, SVG Export Plug-In . SVG Version: 6.00 Build 0)  -->
<svg version="1.1" id="Layer_1" xmlns="http://www.w3.org/2000/svg" xmlns:xlink="http://www.w3.org/1999/xlink" x="0px" y="0px"
	 viewBox="0 0 512 512" style="enable-background:new 0 0 512 512;" xml:space="preserve">
<style type="text/css">
	.st0{fill:#F2EAEB;}
</style>
<g>
	<g>
		<path class="st0" d="M294.1,256l210-210c10.5-10.5,10.5-27.6,0-38.1c-10.5-10.5-27.6-10.5-38.1,0l-210,210L46,7.9
			C35.5-2.6,18.4-2.6,7.9,7.9S-2.6,35.5,7.9,46l210,210L7.9,466c-10.5,10.5-10.5,27.6,0,38.1c10.5,10.5,27.6,10.5,38.1,0l210-210
			l210,210c10.5,10.5,27.6,10.5,38.1,0c10.5-10.5,10.5-27.6,0-38.1L294.1,256z"/>
	</g>
</g>
</svg>
