<?xml version="1.0" encoding="iso-8859-1"?>
<!-- Generator: Adobe Illustrator 19.0.0, SVG Export Plug-In . SVG Version: 6.00 Build 0)  -->
<svg version="1.1" id="Capa_1" xmlns="http://www.w3.org/2000/svg" xmlns:xlink="http://www.w3.org/1999/xlink" x="0px" y="0px"
	 viewBox="0 0 512 512" style="enable-background:new 0 0 512 512;" xml:space="preserve">
<g>
	<g>
		<path d="M256,0C133.64,0,34.093,95.521,34.093,212.935c0,159.348,203.604,290.745,212.277,296.26
			c2.937,1.872,6.28,2.805,9.63,2.805c3.344,0,6.693-0.939,9.63-2.805c8.673-5.515,212.277-136.912,212.277-296.26
			C477.907,95.521,378.366,0,256,0z M255.994,472.392C216.583,444.95,69.981,334.612,69.981,212.935
			c0-97.627,83.445-177.047,186.019-177.047s186.019,79.42,186.019,177.047C442.019,334.415,295.387,444.914,255.994,472.392z"/>
	</g>
</g>
<g>
	<g>
		<path d="M256,97.501c-55.74,0-101.084,45.344-101.084,101.084c0,55.734,45.344,101.078,101.084,101.078
			s101.084-45.344,101.084-101.078C357.084,142.852,311.74,97.501,256,97.501z M256,263.77c-35.948,0-65.196-29.243-65.196-65.19
			c0-35.948,29.249-65.196,65.196-65.196c35.948,0,65.196,29.243,65.196,65.196C321.196,234.527,291.948,263.77,256,263.77z"/>
	</g>
</g>
<g>
</g>
<g>
</g>
<g>
</g>
<g>
</g>
<g>
</g>
<g>
</g>
<g>
</g>
<g>
</g>
<g>
</g>
<g>
</g>
<g>
</g>
<g>
</g>
<g>
</g>
<g>
</g>
<g>
</g>
</svg>
