<?xml version="1.0" encoding="utf-8"?>
<!-- Generator: Adobe Illustrator 23.0.3, SVG Export Plug-In . SVG Version: 6.00 Build 0)  -->
<svg version="1.1" id="Capa_1" xmlns="http://www.w3.org/2000/svg" xmlns:xlink="http://www.w3.org/1999/xlink" x="0px" y="0px"
	 viewBox="0 0 512 512" style="enable-background:new 0 0 512 512;" xml:space="preserve">
<style type="text/css">
	.st0{fill:#F2EAEB;}
</style>
<g>
	<g>
		<path class="st0" d="M256,0C133.6,0,34.1,95.5,34.1,212.9c0,159.3,203.6,290.7,212.3,296.3c2.9,1.9,6.3,2.8,9.6,2.8
			c3.3,0,6.7-0.9,9.6-2.8c8.7-5.5,212.3-136.9,212.3-296.3C477.9,95.5,378.4,0,256,0z M256,472.4C216.6,445,70,334.6,70,212.9
			c0-97.6,83.4-177,186-177s186,79.4,186,177C442,334.4,295.4,444.9,256,472.4z"/>
	</g>
</g>
<g>
	<g>
		<path class="st0" d="M256,97.5c-55.7,0-101.1,45.3-101.1,101.1c0,55.7,45.3,101.1,101.1,101.1s101.1-45.3,101.1-101.1
			C357.1,142.9,311.7,97.5,256,97.5z M256,263.8c-35.9,0-65.2-29.2-65.2-65.2c0-35.9,29.2-65.2,65.2-65.2
			c35.9,0,65.2,29.2,65.2,65.2C321.2,234.5,291.9,263.8,256,263.8z"/>
	</g>
</g>
</svg>
